<svg width="92" height="108" viewBox="0 0 92 108" fill="currentColor" xmlns="http://www.w3.org/2000/svg">

<path d="M0.800001 74.6V33.8C0.800001 12.2 11.6 1.4 33.2 1.4H59.2C80.8 1.4 91.6 12.2 91.6 33.8V64.4H28.4V76.6C28.4 80.8667 30.5333 83 34.8 83H87.6V98L75.6 107H33.2C11.6 107 0.800001 96.2 0.800001 74.6ZM28.4 43.2H64V31.8C64 27.5333 61.8667 25.4 57.6 25.4H34.8C30.5333 25.4 28.4 27.5333 28.4 31.8V43.2Z" fill="currentColor"/>
<rect x="1" y="43" width="28" height="21" rx="1" fill="#FABD00"/>

</svg>
