<svg xmlns="http://www.w3.org/2000/svg" version="1.1" xmlns:xlink="http://www.w3.org/1999/xlink" viewBox="0 0 170 114.5">
  <g fill="#ee7402">
    <path id="ala-inferior" d="M164.7,62.3c0-.2-.2-.4-.5-.4s-.4,0-.4.3h0c-11.3,28-38.8,47.8-70.9,47.8h-1.1c-.3,0-.5.2-.5.5s0,.4.3.4c6,2.3,12.6,3.6,19.4,3.6,29.2,0,52.9-23.3,53.7-52.2h0Z"/>
    <path id="ala-media" d="M160.1,49.7c0-.3-.2-.5-.5-.5s-.3,0-.4.2h0c-16.5,22.1-43,36.3-72.7,36.3s-35.5-5.5-49.9-14.8c0,0-.2,0-.3,0-.3,0-.5.2-.5.5s0,.2,0,.3c13.4,15.8,33.4,25.8,55.7,25.8s58.1-19.8,68.4-47.5h0q0,0,0-.2Z"/>
    <path id="ala-superior" d="M157.6,41.3c0-.3-.2-.5-.5-.5h-.2c-16.6,8.5-35.4,13.4-55.3,13.4C59.6,54.2,22.6,32.7.9.2c-.1,0-.2-.2-.4-.2C.2,0,0,.2,0,.5v.2c12.1,39,48.5,67.3,91.4,67.3s48.7-10,65.9-26.3h0c.2-.2.3-.3.3-.4Z"/>
  </g>
</svg>